<?xml version="1.0" encoding="utf-8"?>
<!-- Generator: Adobe Illustrator 27.5.0, SVG Export Plug-In . SVG Version: 6.00 Build 0)  -->
<svg version="1.1" id="background" xmlns="http://www.w3.org/2000/svg" xmlns:xlink="http://www.w3.org/1999/xlink" x="0px" y="0px"
	 viewBox="0 0 600 400" style="enable-background:new 0 0 600 400;" xml:space="preserve">
<g>
	<rect style="fill:#FFFFFF;" width="600" height="400"/>
	<linearGradient id="SVGID_1_" gradientUnits="userSpaceOnUse" x1="642.2767" y1="87.759" x2="-88.7425" y2="163.5192">
		<stop  offset="0.0012" style="stop-color:#147AFF"/>
		<stop  offset="0.9976" style="stop-color:#4F0D8A"/>
	</linearGradient>
	<path style="fill:url(#SVGID_1_);" d="M600,0v240.74c-8.12-7.99-20.95-17.74-35.27-17.74c-22.73,0-29.21,33-58.73,33
		s-26.17-31-52-31c-13.62,0-20.94,10.01-29.89,19.48c-7.63-3.86-16.56-6.48-28.11-6.48c-12.59,0-22.26,4.48-31.4,10.54
		c-13.48-14.8-21.5-37.54-46.15-37.54c-28.96,0-47.98,31.65-70.58,53.55c-6.56-4.2-13.91-7.55-25.87-7.55
		c-17.93,0-24.03,15.44-36.01,24.17c-25.27-10.53-28.1-39.17-52.94-39.17c-30.44,0-36.9,45-83.02,45C23.97,287,8.52,274.87,0,264.31
		V0H600z"/>
	
		<linearGradient id="SVGID_00000023246499045965576330000012630445672879087773_" gradientUnits="userSpaceOnUse" x1="643.2101" y1="96.7654" x2="-87.8091" y2="172.5256">
		<stop  offset="0.0012" style="stop-color:#147AFF"/>
		<stop  offset="0.9976" style="stop-color:#4F0D8A"/>
	</linearGradient>
	<path style="opacity:0.23;fill:url(#SVGID_00000023246499045965576330000012630445672879087773_);" d="M600,0v254.01
		c-8.57-6.22-20.04-12.01-33-12.01c-28,0-39,34-80,34s-47-38-91-38c-39,0-50,43-104,43c-39,0-38-24-70-24c-25,0-27,30-54,30
		c-21,0-28-15-46-15c-23,0-33,28-73,28c-21.61,0-38.26-8.17-49-15.69V0H600z"/>
	
		<linearGradient id="SVGID_00000062169681677716855590000007282754611530092686_" gradientUnits="userSpaceOnUse" x1="643.2101" y1="96.7654" x2="-87.8091" y2="172.5256">
		<stop  offset="0.0024" style="stop-color:#1499FF"/>
		<stop  offset="0.9976" style="stop-color:#4F0D8A"/>
	</linearGradient>
	<path style="opacity:0.3;fill:url(#SVGID_00000062169681677716855590000007282754611530092686_);" d="M600,0v254.01
		c-8.57-6.22-20.04-12.01-33-12.01c-28,0-39,34-80,34c-30.24,0-41.44-20.67-62.89-31.52c-8.03,8.48-17.36,16.52-33.72,16.52
		c-11.52,0-19.29-5.3-25.79-12.46C345.42,261.28,328.57,281,292,281c-24.42,0-33.16-9.41-44.13-16.45
		C235.91,276.14,222.96,285,207,285c-8.48,0-15.32-1.45-21.01-3.83C181.27,284.6,175.63,287,168,287c-21,0-28-15-46-15
		c-23,0-33,28-73,28c-21.61,0-38.26-8.17-49-15.69V0H600z"/>
</g>
</svg>
