<?xml version="1.0" standalone="no"?>
<!DOCTYPE svg PUBLIC "-//W3C//DTD SVG 20010904//EN"
 "http://www.w3.org/TR/2001/REC-SVG-20010904/DTD/svg10.dtd">
<svg version="1.0" xmlns="http://www.w3.org/2000/svg"
 width="500.000000pt" height="500.000000pt" viewBox="0 0 500.000000 500.000000"
 preserveAspectRatio="xMidYMid meet">

<g transform="translate(0.000000,500.000000) scale(0.100000,-0.100000)"
fill="#FFFFFF" stroke="none">
<path d="M1870 3879 c-14 -6 -36 -20 -48 -32 -52 -48 -52 -49 -52 -457 0 -423
-1 -415 67 -467 l36 -28 627 0 627 0 36 28 c68 52 67 44 67 470 0 382 0 384
-22 417 -13 18 -36 43 -51 54 -28 21 -37 21 -645 23 -396 1 -626 -2 -642 -8z
m1195 -489 l0 -335 -565 0 -565 0 -3 325 c-1 179 0 331 3 338 3 10 120 12 567
10 l563 -3 0 -335z"/>
<path d="M2420 2670 l0 -140 -790 0 -790 0 0 -230 0 -230 75 0 75 0 0 155 0
155 715 0 715 0 0 -155 0 -155 80 0 80 0 0 155 0 155 715 0 715 0 0 -155 0
-155 75 0 75 0 0 230 0 230 -790 0 -790 0 0 140 0 140 -80 0 -80 0 0 -140z"/>
<path d="M365 1965 c-22 -8 -41 -15 -42 -15 -1 0 -14 -17 -28 -37 l-25 -38 0
-330 c0 -309 1 -332 20 -362 43 -71 12 -68 625 -68 613 0 582 -3 625 68 19 30
20 53 20 362 0 310 -1 332 -20 362 -42 70 -26 68 -610 70 -439 2 -532 0 -565
-12z m1035 -420 l0 -265 -482 2 -483 3 -3 263 -2 262 485 0 485 0 0 -265z"/>
<path d="M1956 1970 c-16 -5 -40 -19 -53 -32 -52 -49 -53 -54 -53 -396 0 -314
0 -320 23 -352 12 -18 35 -43 50 -54 28 -21 36 -21 577 -21 538 0 549 0 576
21 15 11 37 33 48 48 20 26 21 43 24 339 2 196 -1 325 -7 347 -13 43 -53 83
-100 99 -41 13 -1039 14 -1085 1z m1024 -425 l0 -265 -480 0 -480 0 0 265 0
265 480 0 480 0 0 -265z"/>
<path d="M3537 1966 c-47 -17 -72 -39 -86 -75 -8 -19 -11 -130 -9 -363 l3
-337 29 -30 c17 -17 46 -36 65 -41 22 -6 242 -10 551 -10 486 0 517 2 557 20
25 11 51 33 63 52 19 31 20 50 20 358 0 364 -2 374 -71 415 -33 19 -54 20
-559 22 -425 2 -532 0 -563 -11z m1031 -418 l-3 -263 -482 -3 -483 -2 0 265 0
265 485 0 485 0 -2 -262z"/>
</g>
</svg>
